<svg width="9" height="13" viewBox="0 0 9 13" fill="none" xmlns="http://www.w3.org/2000/svg">
<path d="M3.88442 12.3647C0.608139 7.17319 0 6.64038 0 4.73241C0 2.1189 1.93831 0.000244141 4.32935 0.000244141C6.7204 0.000244141 8.65871 2.1189 8.65871 4.73241C8.65871 6.64038 8.05057 7.17319 4.77428 12.3647C4.55928 12.7042 4.0994 12.7042 3.88442 12.3647ZM4.32935 6.70414C5.32562 6.70414 6.13325 5.82137 6.13325 4.73241C6.13325 3.64344 5.32562 2.76067 4.32935 2.76067C3.33308 2.76067 2.52546 3.64344 2.52546 4.73241C2.52546 5.82137 3.33308 6.70414 4.32935 6.70414Z" fill="#377DFF"/>
</svg>
